# xmcd
#
# Track frame offsets:
#	150
#	12160
#	22798
#	39017
#	58744
#	80671
#	95619
#	118347
#	132802
#	145297
#	158464
#	172658
#	182532
#	197147
#	212039
#	224964
#
# Disc length: 3122 seconds
#
# Revision: 0
# Processed by: cddbd v1.5.2PL0 Copyright (c) Steve Scherf et al.
# Submitted via: dBpowerAMP V4.0
#
DISCID=d70c3010
DTITLE=Small Town cowboys - right now
DYEAR=2006
DGENRE=Country
TTITLE0=right now
TTITLE1=these boots are made for walking
TTITLE2=folsom prison blues
TTITLE3=island in the stream
TTITLE4=picture
TTITLE5=queen of hearts
TTITLE6=midnight special
TTITLE7=heart is right
TTITLE8=stand by your man
TTITLE9=smalltown saturday night
TTITLE10=he drinks tequlia
TTITLE11=bad moon rising
TTITLE12=let me be there
TTITLE13=cottonfields
TTITLE14=little tears
TTITLE15=mercedes benz
EXTD=right now
EXTT0=
EXTT1=
EXTT2=
EXTT3=
EXTT4=
EXTT5=
EXTT6=
EXTT7=
EXTT8=
EXTT9=
EXTT10=
EXTT11=
EXTT12=
EXTT13=
EXTT14=
EXTT15=
PLAYORDER=
